<svg id="Layer_1" data-name="Layer 1" xmlns="http://www.w3.org/2000/svg" viewBox="0 0 468.66 142.64"><defs><style>.cls-1{fill:#fff;}</style></defs><title>logo</title><path class="cls-1" d="M84.66,269.88H55.93a3.65,3.65,0,0,0-3.46,2.5L49,283a3.62,3.62,0,0,1-3.46,2.5H25.32a3.65,3.65,0,0,1-3.43-4.89L54.19,192a3.64,3.64,0,0,1,3.42-2.4H83.25a3.64,3.64,0,0,1,3.42,2.4l32.17,88.6a3.64,3.64,0,0,1-3.42,4.88H95.1a3.62,3.62,0,0,1-3.46-2.5l-3.52-10.64A3.65,3.65,0,0,0,84.66,269.88ZM79,244.69l-5.26-15.78a3.64,3.64,0,0,0-6.91,0L61.67,244.7a3.64,3.64,0,0,0,3.46,4.78H75.58A3.64,3.64,0,0,0,79,244.69Z" transform="translate(-21.67 -184.88)"/><path class="cls-1" d="M134.25,226.64A32.4,32.4,0,0,1,146,213a30.24,30.24,0,0,1,16.6-4.76,27.64,27.64,0,0,1,13.12,3.06,24.32,24.32,0,0,1,4.4,2.95,2.8,2.8,0,0,0,4.64-2.11V187.69a2.81,2.81,0,0,1,2.81-2.81h21.18a2.81,2.81,0,0,1,2.81,2.81v95a2.8,2.8,0,0,1-2.81,2.8H187.58a2.8,2.8,0,0,1-2.81-2.8v-.14a2.81,2.81,0,0,0-4.68-2.08,25,25,0,0,1-4.16,2.85,27.52,27.52,0,0,1-13.46,3.13A29.94,29.94,0,0,1,146,281.72a32.51,32.51,0,0,1-11.7-13.67,52.22,52.22,0,0,1,0-41.41Zm46.65,9.11a13.79,13.79,0,0,0-19.79-.07q-3.95,4.15-3.94,11.63t3.94,11.63a13.64,13.64,0,0,0,19.79.06q4-4.2,4-11.69T180.9,235.75Z" transform="translate(-21.67 -184.88)"/><path class="cls-1" d="M379.83,212.36a26.43,26.43,0,0,1,10.67-3.64,2.71,2.71,0,0,1,3.06,2.68v22.87a2.7,2.7,0,0,1-2.7,2.7h-4.78q-8.7,0-12.92,3.4T369,252.2v30.62a2.7,2.7,0,0,1-2.7,2.7H345a2.7,2.7,0,0,1-2.7-2.7V211.93a2.7,2.7,0,0,1,2.7-2.7h21.26a2.7,2.7,0,0,1,2.7,2.7v3.35a2.7,2.7,0,0,0,4.6,1.92A32.58,32.58,0,0,1,379.83,212.36Z" transform="translate(-21.67 -184.88)"/><path class="cls-1" d="M413,226.64a32.56,32.56,0,0,1,11.7-13.6,29.88,29.88,0,0,1,16.52-4.76,27.94,27.94,0,0,1,13.6,3.12,24.46,24.46,0,0,1,4.16,2.86,2.81,2.81,0,0,0,4.68-2.09V212a2.8,2.8,0,0,1,2.81-2.8h21a2.8,2.8,0,0,1,2.81,2.8v70.69a2.8,2.8,0,0,1-2.81,2.8h-21a2.8,2.8,0,0,1-2.81-2.8v-.16a2.81,2.81,0,0,0-4.67-2.09,24.58,24.58,0,0,1-4.23,2.88,28,28,0,0,1-13.54,3.13,30,30,0,0,1-16.52-4.76A32.58,32.58,0,0,1,413,268.05a52.22,52.22,0,0,1,0-41.41Zm46.65,9.11a13.79,13.79,0,0,0-19.79-.07q-3.94,4.15-3.94,11.63t3.94,11.63a13.64,13.64,0,0,0,19.79.06q4-4.2,4-11.69T459.66,235.75Z" transform="translate(-21.67 -184.88)"/><path class="cls-1" d="M323.33,313.12a.78.78,0,0,1-.05.14v.26a8.9,8.9,0,0,1-1.23,2.37h0a9.39,9.39,0,0,1-.76.91c-.13.15-.27.29-.4.42l-.33.3a22.78,22.78,0,0,1-6,3.59l-.11.05-.08,0a59.37,59.37,0,0,1-10,3.28l-1.51.35-.35.08a99.22,99.22,0,0,1-10.78,1.75,122.24,122.24,0,0,1-13,.85h-3a122.24,122.24,0,0,1-13-.85A101.72,101.72,0,0,1,252,324.92l-.34-.08-1.52-.35a59.37,59.37,0,0,1-10-3.28l-.08,0a.31.31,0,0,1-.1-.05,22.47,22.47,0,0,1-6-3.59l-.33-.3c-.14-.13-.27-.27-.4-.41a9.38,9.38,0,0,1-.77-.92h0a9.2,9.2,0,0,1-1.23-2.37v-.26a.78.78,0,0,1,0-.14l0-.48,0-.4c0-.05,0-.09,0-.14v-.23c.05-.14.12-.26.18-.4a9.34,9.34,0,0,1,2.57-3.83,25.16,25.16,0,0,1,8.08-4.75,43.52,43.52,0,0,1,10.66-2.68,1.59,1.59,0,0,1,1.53.68l1.54,2.27a2.08,2.08,0,0,1-1.24,3.2c-2.44.58-5.79,1.41-7.64,2a20.16,20.16,0,0,0-5.15,2.73,2.4,2.4,0,0,0-.77.8,1,1,0,0,0-.09.24,1.77,1.77,0,0,0,.44,1.59,3.45,3.45,0,0,0,.6.5,16.8,16.8,0,0,0,3.71,1.88c8.51,2.95,17.5,3.93,26.58,4.35,1.69.07,3.37.11,5.06.12s3.38-.05,5.07-.12c9.07-.42,18.06-1.4,26.57-4.35a16.8,16.8,0,0,0,3.71-1.88,3.55,3.55,0,0,0,.61-.5,1.8,1.8,0,0,0,.44-1.59,1,1,0,0,0-.1-.24,2.4,2.4,0,0,0-.77-.8,20.16,20.16,0,0,0-5.15-2.73c-1.85-.62-5.2-1.45-7.64-2a2.08,2.08,0,0,1-1.24-3.2l1.54-2.27a1.59,1.59,0,0,1,1.53-.68,43.52,43.52,0,0,1,10.66,2.68,25.16,25.16,0,0,1,8.08,4.75,9.34,9.34,0,0,1,2.57,3.83c.06.14.13.26.18.4v.23s0,.09,0,.14l0,.4C323.32,312.81,323.33,313,323.33,313.12Zm-10.62-42.21a87.5,87.5,0,0,1-6.61,8.33c-8.24,9.95-16.56,19.85-24.75,29.84a5.22,5.22,0,0,1-8.24,0c-7.71-9.34-15.53-18.58-23.26-27.91a104.82,104.82,0,0,1-8.28-10.59,38.82,38.82,0,0,1-5.36-29.9c3.7-16.75,14.06-27.52,30.54-32.3,2.23-.64,4.58-.91,6.87-1.34l6.77-.07c1.87.32,3.76.56,5.61,1a41.87,41.87,0,0,1,32.94,37.66A40.38,40.38,0,0,1,312.71,270.91Zm-17-22.35q0-9.76-5.34-15.37A18.33,18.33,0,0,0,264,233.1q-5.25,5.52-5.25,15.46,0,9.76,5.25,15.47a17.18,17.18,0,0,0,13.2,5.69,17.41,17.41,0,0,0,13.11-5.6Q295.67,258.51,295.67,248.56Z" transform="translate(-21.67 -184.88)"/></svg>